<?xml version="1.0" encoding="UTF-8"?>
<svg id="Layer_1" xmlns="http://www.w3.org/2000/svg" version="1.1" viewBox="0 0 600 600">
  <!-- Generator: Adobe Illustrator 29.0.1, SVG Export Plug-In . SVG Version: 2.1.0 Build 192)  -->
  <defs>
    <style>
      .st0 {
        fill: #458ef7;
      }

      .st1 {
        fill: #526df2;
      }

      .st2 {
        fill: #2cacfb;
      }

      .st3 {
        fill: #22b2fc;
      }

      .st4 {
        fill: #4c7ff5;
      }

      .st5 {
        fill: #35a3fa;
      }

      .st6 {
        fill: #4888f6;
      }

      .st7 {
        fill: #5074f3;
      }

      .st8 {
        fill: #565eef;
      }

      .st9 {
        fill: #f4f8fe;
      }

      .st10 {
        fill: #1bb5fc;
      }

      .st11 {
        fill: #10b9fd;
      }

      .st12 {
        fill: #3a9df9;
      }

      .st13 {
        fill: #5466f1;
      }

      .st14 {
        fill: #4293f8;
      }
    </style>
  </defs>
  <path class="st13" d="M553.7,330.1c0,16.8,0,33.7,0,50.5-2.3-.6-2.9,3-3.6,3.4-.5.3-1.3,0-1.8.2-.3.2-1.8,2.8-2.4,3.4-1.1.9-2.9,1.2-4,2.5-.8,1-.8,2.4-1.3,2.9-.5.6-3.5,2-4.6,3.1-6.9,6.2-14.3,14.5-20.8,21.2-1.4,1.5-4.1,2.8-5.5,4-1.3,1.1-1.8,3.2-2.8,4.2-1.6,1.7-4.6,2.7-6.7,5.3-.8,1-1.1,2.6-1.6,3.1-.9.9-4.8,2.9-5.7,3.8s-.8,2.5-1.2,2.8-1.3,0-2.1.6c-.7.6-1.8,2.8-2.7,3.8-2.4,2.5-5.2,4.8-7.5,7-3,2.8-5.4,5.8-8.3,8.2-9.9,8.5-18.9,18.9-28.2,28.2-4.4,4.4-12.1,9.9-15.5,15-.5.7-.4,1.7-.5,1.8-.2.2-1.2-.5-1.7-.4-1.1.2-1.6,2.4-2.3,3.2-1.3,1.4-4.1,3-6,5-5.5,5.9-11.5,11-17.2,16.8-.9,1-1.6,2.5-2.5,3.5-.8.8-5,3.8-5.2,4.1-.4.7,0,1.8.4,2.4l-90,52.3c-1.5.4-7.8-4.3-9.5-5.3,1.1-1.9,2.9-3.8,4.5-5.3,8.3-7.8,16.5-16.5,24.8-24.2.7-.7,2.5-2.4,3-3,.9-1.1,1-2.5,1.4-2.9.5-.6,2.6-.6,3.4-1.4.2-.2,3.4-3.8,3.5-4,.6-.9.7-2.3,1.5-3,.9-.8,2.8-.6,3.3-1.2.5-.7,0-2,.7-2.8.5-.5,1.8-.5,2.5-1,6-4.4,10.7-10.6,16-15.5,1.6-1.5,7.4-7.6,8.3-8.2.8-.5,2-.4,2.5-1,.4-.5.5-1.8,1.2-2.8,1.3-1.7,4.3-3.2,5.5-4.5,1.1-1.2,1.7-3.5,3.2-4.8,1.2-1,2.6-1.1,3.5-2,8-7.1,16.2-15.4,23.7-23.3,4.9-5.1,10.2-9.9,15.2-15.3s10.1-8.9,14.6-14.9c1.5-2,5.6-3.7,6.7-4.8.7-.7.7-2.1,1.5-3,1-1.2,2.2-1.1,3-2,11.2-11.3,22.6-23.2,34.2-34.3,3.8-3.6,8.7-7.5,12.3-11.2.7-.7,2-3,2.1-3.1.5-.3,1.4,0,1.9-.4.6-.4.9-2.4,1.7-3.1,1-.9,2.5-1.4,3.9-2.9,2.1-2.2,4.7-6.6,7-8.5,2.1-1.7,2.8-1.5,5.5-4,7.8-7.5,15-15,23-22.5,4.7-4.3,9.8-9.4,14.1-14.4.6-.7.8-1.4,1.9-1.3h0Z"/>
  <path class="st1" d="M553.7,285.1v45c-1.1,0-1.3.7-1.9,1.3-4.3,5-9.4,10.1-14.1,14.4-8,7.5-15.2,15-23,22.5-2.7,2.5-3.4,2.4-5.5,4-2.3,1.8-4.9,6.2-7,8.5-1.4,1.5-2.9,2-3.9,2.9-.8.7-1,2.7-1.7,3.1-.5.3-1.4,0-1.9.4-.2.1-1.5,2.4-2.1,3.1-3.6,3.8-8.5,7.6-12.3,11.2-11.6,11.1-23,23-34.2,34.3-.8.8-2.1.8-3,2-.8,1-.8,2.3-1.5,3-1.1,1.1-5.2,2.8-6.7,4.8-4.5,6-9.4,9.5-14.6,14.9s-10.3,10.2-15.2,15.3c-7.5,7.9-15.8,16.1-23.7,23.3-1,.9-2.3.9-3.5,2-1.5,1.3-2.1,3.6-3.2,4.8-1.2,1.2-4.3,2.8-5.5,4.5-.7.9-.8,2.3-1.2,2.8-.5.6-1.7.5-2.5,1-.9.6-6.7,6.8-8.3,8.2-5.3,4.9-10,11.2-16,15.5-.7.5-2,.5-2.5,1-.8.8-.2,2.1-.7,2.8s-2.4.4-3.3,1.2c-.8.7-.8,2.1-1.5,3-.2.2-3.3,3.8-3.5,4-.8.8-2.9.8-3.4,1.4-.3.4-.4,1.8-1.4,2.9-.5.6-2.3,2.3-3,3-8.3,7.8-16.5,16.4-24.8,24.2-1.6,1.5-3.4,3.4-4.5,5.3-7.7-4.3-15.4-8.6-23-13-.2-1.2,0-1.6.8-2.5,4.8-5.5,10.5-9.8,15.2-15.2,3-3.5,4.1-3.8,7.5-6.5,2.9-2.5,5.3-6.2,8.1-8.9,5.5-5.5,11.5-10.7,17-16,3.2-3.1,6.1-6.7,9.3-9.7,1.5-1.4,3.7-2.3,5-4,.8-1.1,1.2-2.8,1.8-3.2.8-.7,3.5-.9,4.2-1.8.5-.5.4-1.6.7-2.1,2-2.6,3.3-2.6,5.3-5.8s8.4-6.2,10.9-9.1c.7-.8.8-2.1,1.4-2.8s4.4-2.9,4.8-3.2c.4-.4-.1-1.6.6-2.2.4-.3,1.5-.1,2-.5.3-.2,2.8-4.3,4-5,.8-.4,1.9-.1,2.5-.5s.4-2.1.9-3.1c1.5-2.6,7-4.9,8.4-6.4.3-.3.5-1.7,1.1-2.6,1.6-2.1,5.5-4.5,7.3-6.2.7-.7.8-2.1,1.4-2.6s1.7-.3,2.5-1c.9-.7,1.8-3.2,2.5-4,4.1-4.4,8.9-8.9,13.5-13,4.7-4.3,8.6-8.7,13.3-13.2,1-1,2.8-.5,2.5-3.3l35.4-20.6c.2-7.8,0-15.6,0-23.4,3.8-.8,6.5-5.6,9-8.2,3.8-4.1,8.4-7.5,12.4-11.4.4-.4.2-1.7.9-2.4,1.3-1.3,4.9-3,6.3-4.2,1.2-1,2.2-3.3,3.5-4.5,3.9-4.1,10.4-8.6,13.7-12.8,2.6-3.2,3.5-3.6,6.5-6.5,6.8-6.3,12.7-14,19.4-19.9,2-1.8,3.1-3.5,4.8-4.9,1.2-1.1,3.2-1.7,4.3-2.9,1-1.1,1.7-3.2,2.4-3.9,2.1-1.9,4.3-4,6.5-6,.8-.8,3.1-2.2,4.2-2.5h0Z"/>
  <path class="st4" d="M538.7,147.6l15,8.3c0,21.9,0,43.8,0,65.7-3.9-.2-4,4.4-5.5,5.8-.9.9-2.4.5-2.9.9-.3.2-.5,1.9-1.1,2.7-3,3.7-8.8,7.4-12.3,10.9-9.8,9.8-20,21-30.2,30.6-.9.8-3.1,1.6-4.2,2.8s-1.4,2.8-1.9,3.3c-.6.6-2.1.7-2.7,1.3-.5.5-.7,1.7-1.6,2.6-1.1,1.2-3.8,2.6-4.4,3.4-1.9,2.5-1,2-3.9,4.4-4.8,4-8.5,8-12.2,12.8-.8,1-4.5,2.8-4.9,3.4-.4.6,0,1.5-.8,2.4-.7.8-2,1-2.8,1.7-7.5,6.4-14.5,15.7-21.7,22.3-1.1,1-3.3.6-2.8,3.5-6.3-3.7-12.8-7.1-19-10.8v-46.3c13.3-8.6,27.4-15.8,40.9-23.9.2-10.3.1-20.6.1-30.9,3.4,0,2.4-1.8,3.1-2.9.2-.2,1.9-.7,2.7-1.6.6-.7.8-2.1,1.2-2.3.7-.5,2.1,0,2.5-.3.1,0,.3-1.6.8-2.4.7-1.1,2.9-3.1,4-4,13.6-12.1,26.1-25.4,39.6-38.2,2.4-2.2,4.7-4.3,6.9-6.9s3.2-2.6,5.1-4.4c1.6-1.6,3.5-5,5.5-6.5.8-.6,2-.6,2.8-1.2.9-.8.7-2,1.3-2.7.8-1,3.2-1.3,3.7-3h0Z"/>
  <path class="st3" d="M334.2,29.6c.1,1.1,0,1.7-.7,2.5-1.7,2.1-6.1,5.1-8.3,7.2-18.6,19.1-38,38.2-57.1,56.9-2.9,2.9-8.2,6.6-10.9,9.4-.5.6-.3,1.8-.8,2.3s-3.3,1.9-4.3,2.9c-20.3,19.7-39.8,40.1-60.5,60-3.6,3.5-7.6,7.6-11.5,11-1,.8-2.3,1.9-3.5,2.2-1.4-.8-5.8-3.1-7-2.8l-41.9,23.9c-.2,6,0,11.9,0,17.9-1.6.3-3.3,1.7-4.4,2.8-23.2,21.5-44.8,45.1-67.8,66.7-1.6,1.5-3.9,3.5-5.8,4.5v-31.5c1.5.3,3.4-1.2,4.3-2.1,6.5-6.4,13.4-13.8,20.1-20.1,16.1-15.2,32.3-31.1,47.7-46.8,15.8-16,32.2-31.6,48.3-47.2,30-29.3,61.2-58,90.2-88.3,12.5-13,26.9-26.3,40.8-39.2l6.5-7.8c9,4.8,17.6,10.4,26.5,15.5h0Z"/>
  <path class="st7" d="M424.2,419.1c.3,2.7-1.5,2.3-2.5,3.3-4.7,4.6-8.6,9-13.3,13.2-4.6,4.1-9.4,8.7-13.5,13-.7.8-1.6,3.2-2.5,4-.8.7-1.9.5-2.5,1s-.7,1.9-1.4,2.6c-1.8,1.7-5.7,4.1-7.3,6.2-.7.9-.9,2.4-1.1,2.6-1.4,1.4-6.9,3.8-8.4,6.4-.6,1-.4,2.7-.9,3.1s-1.7,0-2.5.5c-1.2.7-3.8,4.8-4,5-.5.4-1.6.2-2,.5-.7.5-.2,1.8-.6,2.2-.3.3-4.1,2.5-4.8,3.2s-.7,2-1.4,2.8c-2.5,2.9-9,6-10.9,9.1s-3.3,3.2-5.3,5.8c-.4.5-.3,1.6-.7,2.1-.7.9-3.4,1.1-4.2,1.8-.5.5-.9,2.2-1.8,3.2-1.3,1.7-3.5,2.6-5,4-3.1,3-6.1,6.6-9.3,9.7-5.5,5.3-11.5,10.6-17,16-2.8,2.7-5.2,6.5-8.1,8.9-3.3,2.8-4.4,3.1-7.5,6.5-4.8,5.5-10.5,9.8-15.2,15.2-.8.9-.9,1.4-.8,2.5-15.1-8.7-30.1-17.9-45-26.5,1.7-1.5,2.7-4.4,4.6-5.7.9-.6,3.6-1.3,4.2-2.3,1-1.8.4-2.4,2.8-4.7,4.2-4,8.4-8.3,12.9-12.1.4-.3.5-1.1.6-1.1.5-.3,1.6.7,1.9.4.2-.2.6-3.8,2.5-5.3,1.2-.9,2.6-.7,3.5-1.5.9-.7.7-2,1.3-2.7.7-1,3.3-2,4.4-3.1.5-.5.6-1.4,1.1-1.9,4.8-5.3,11-9.4,15.2-15.3l4.5-3.2c2.7,1.5,5.6,2.9,8.4,4.4.6.3.6,1,1,1.1,1.8.5,1.5-.7,2.3-1.1,13.6-7.5,26.8-15.6,40.4-23.1l.5-1.5v-46.7s38.1-21.7,38.1-21.7c1.4-.8,2.9.4,4.2,1,8.9,4.5,17.6,10.8,26.3,15.7,3.5,2,7.3,3.5,10.7,5.8,2.5.6,5.5-3,8.1-3.4h0Z"/>
  <path class="st10" d="M307.7,14.1l-6.5,7.8c-13.9,12.9-28.3,26.2-40.8,39.2-29.1,30.3-60.2,58.9-90.2,88.3-16,15.7-32.5,31.3-48.3,47.2-15.4,15.6-31.6,31.6-47.7,46.8-6.7,6.3-13.6,13.7-20.1,20.1-1,1-2.9,2.5-4.3,2.1v-34.5c1.9-.3,4.3-2.7,5.8-4,6.6-6.1,12.7-13.3,19-19.5,51.1-50,102.8-98.8,152.9-149.6,2.6-2.6,7.1-4.9,7.8-9,21.7-12.5,43.3-25.2,65-37.7,2.2-.8,5.5,1.7,7.5,2.7h0Z"/>
  <path class="st2" d="M367.7,48.6c-.1,3.2-2.8,4.4-4.5,6.2-5,5.3-10.1,10.2-15.2,15.3-11.6,11.4-23.4,22.7-35.5,34.5-2.3,2.3-4.7,4.9-6.9,7.3-.7.8-2.6.7-2.4,2.2-2.4-1.4-5-2.5-7.4-3.9-.6-.3-.6-1.1-1-1.1-1.8-.5-1.5.7-2.3,1.1-13.7,7.5-27,15.6-40.6,23.4l-.5,48-39.6,22.9c-11.6-6-22.8-13.1-34.3-19.5-.4-.2-.7-.9-.8-.9,1.2-.3,2.6-1.4,3.5-2.2,3.9-3.3,7.9-7.5,11.5-11,20.7-19.9,40.2-40.3,60.5-60,1-1,3.9-2.5,4.3-2.9s.2-1.7.8-2.3c2.6-2.8,7.9-6.5,10.9-9.4,19-18.8,38.4-37.9,57.1-56.9,2.1-2.2,6.5-5.2,8.3-7.2.7-.8.9-1.5.7-2.5,11.1,6.4,22.4,12.6,33.5,19h0Z"/>
  <path class="st6" d="M251.7,454.1c-2.9,1.3-4.9,4.4-7.2,6.5-.9.9-2.2,1.1-3.3,2.2-1.9,2.1-3.4,5-5.5,7-.8.8-2.5.5-3.3,1.2-.6.5-.5,1.8-1,2.5-.5.6-6.4,7-7,7.5-.8.8-2.1.7-3,1.5-1.9,1.6-4.6,6.5-7.2,8.2-2.4,1.6-1.2-.1-3.6,2.6-1.2,1.3-4.6,4-5.3,5-.4.6-.4,1.7-.7,2.1-.6.7-2.4.4-2.8.7-.2.2-.2,1.2-.6,1.7-.6.7-1.9.6-2.3,1.2-.8,1.2-.9,2.7-2.7,4.3-3.2,2.8-6.4,5.6-9.5,8.5-1.9,1.8-4.1,3.4-6,5.2-18.5-10.7-37-21.3-55.5-32,.2-1,1.4-1.2,1.9-1.6,5.2-6.4,11.1-12.1,16.8-18.2,1.2-1.3,4.2-2.4,5.1-3.6.8-1,.6-2.3.8-2.5.2-.2,1.4,0,2.2-.5,2.2-1.6,5.2-7,7.9-9,.9-.7,2.1-.8,3.3-1.7,4.1-3.1,8-9.8,12-13,.9-.7,2.4-.7,3-1.5.6-.7.3-1.8.9-2.5,1.8-1.9,6-4.1,8-6.5,5.6-6.8,12.1-11.9,18-18.5.6-.7.8-1.8,1.3-2.2,1.2-1.2,4.3-1.5,6.4-4.6.6-1,1-2.2.9-3.4,12.8,6.7,25.1,14.4,37.8,21.5.5,10.7.2,21.4.2,32h0Z"/>
  <path class="st14" d="M492.7,121.1c-1.4,1.9-4.4,2.7-6,4.2-1.4,1.3-2.9,3.5-4.7,5.3-4.7,4.6-8.9,9.1-13.6,13.7-2.6,2.5-6.6,5.7-8.9,8.4-.5.6-.5,2.3-1.3,2.8-.9.6-2.3-.5-2.5-.3,0,.1.1,1.4-.7,2.5-.8,1-5.1,5.1-6.3,6.2-.6.6-5,3.5-5.2,3.8-.5.7,0,2.1-.7,2.8-.5.4-1.7.3-2.4.9-.8.6-2.1,3.2-3.1,4.1-1.3,1.3-3.2,1.7-4,2.5-.9.9-1.3,2.6-3,4s-3.6,1.6-5,3.2c-.2-.1-.9,0-1.4-.3-1.9-1-5.7-4-7.5-3.5l-38.6,22.4-1.6.4-1.6-.4c-10.7-5.9-21.1-12.4-31.6-18.6,0-2.3,2-2.8,3.2-4.1,4.9-5.3,10.1-9.5,15.1-14.4,5.2-5.2,10-10.4,15.3-15.2,2.3-2.1,5.5-4.4,7.2-6.3,5.6-6.2,9.4-9.8,15.5-15.4,8.2-7.6,16.2-16.8,24-24.5,2.8-2.8,6.5-5.4,9.3-8.2,2.1-2.1,3.7-5.5,6.5-6.8,17.8,10.3,36.2,20.7,54,31h0Z"/>
  <path class="st11" d="M235.2,49.1c-.7,4-5.2,6.4-7.8,9-50.2,50.7-101.9,99.5-152.9,149.6-6.3,6.2-12.5,13.4-19,19.5-1.4,1.3-3.9,3.7-5.8,4,0-25.1,0-50.3,0-75.4,61.9-35.4,123.6-71,185.4-106.6Z"/>
  <path class="st2" d="M127.7,223.1c0,10.6,0,21.3.1,31.9,9.4,5.6,18.9,11.2,28.4,16.6.1,1.1,0,1.7-.7,2.5-2,2.4-6.3,5.1-8.6,7.4-3.4,3.5-4.1,4.3-8,7.5-4.8,4-9.3,10.8-14.3,14.7-.8.6-2,.5-2.4.9-.3.2-.7,2-1.3,2.9-2.3,3-8.6,8.1-11.8,11.2-18.1,18-37.1,35.6-54.7,54.1l-4.8,3.1c0-26.3,0-52.7,0-79,1.9-1,4.2-3,5.8-4.5,23-21.6,44.6-45.1,67.8-66.7,1.2-1.1,2.9-2.5,4.4-2.8h0Z"/>
  <path class="st7" d="M553.7,221.6c0,21.2,0,42.3,0,63.5-1.2.3-3.4,1.7-4.2,2.5-2.2,2-4.4,4.1-6.5,6-.8.7-1.4,2.8-2.4,3.9-1.2,1.2-3.1,1.9-4.3,2.9-1.7,1.5-2.8,3.1-4.8,4.9-6.7,5.8-12.6,13.6-19.4,19.9-3,2.8-4,3.2-6.5,6.5-3.3,4.1-9.8,8.7-13.7,12.8-1.2,1.3-2.3,3.5-3.5,4.5-1.4,1.2-5,2.9-6.3,4.2-.7.7-.5,2-.9,2.4-3.9,3.8-8.5,7.3-12.4,11.4-2.5,2.6-5.2,7.5-9,8.2,0-8.8,0-17.6,0-26.4-7.6-3.7-14.6-8.3-21.9-12.6-.6-2.9,1.6-2.5,2.8-3.5,7.3-6.6,14.3-15.9,21.7-22.3.8-.7,2.2-.9,2.8-1.7.8-.9.5-1.9.8-2.4.3-.5,4.1-2.3,4.9-3.4,3.7-4.7,7.4-8.7,12.2-12.8,2.9-2.4,2-1.9,3.9-4.4.6-.7,3.2-2.2,4.4-3.4.9-.9,1.1-2.2,1.6-2.6s2.2-.7,2.7-1.3c.5-.6.8-2.2,1.9-3.3s3.3-1.9,4.2-2.8c10.2-9.5,20.3-20.8,30.2-30.6,3.5-3.5,9.4-7.2,12.3-10.9.6-.8.7-2.4,1.1-2.7.5-.4,2,0,2.9-.9,1.5-1.4,1.6-6,5.5-5.8h0Z"/>
  <path class="st5" d="M156.2,271.6c1.9,1,13.1,6.8,13.4,7.8v44.8s-41.8,24.4-41.8,24.4c-.3.4,0,1.4,0,1.9-3.7.4-5.6,4.2-8.2,6.5-5.8,5.2-11.1,10.7-16.7,16.3-8.6,8.5-17.8,17.2-26.3,25.2-7.6,7.1-15.5,14.7-22.8,22.2-1.2,1.3-1.8,3.5-4,3.3,0-16,0-32,0-48l4.8-3.1c17.6-18.4,36.5-36.1,54.7-54.1,3.1-3.1,9.5-8.2,11.8-11.2.7-.9,1.1-2.7,1.3-2.9.4-.3,1.6-.2,2.4-.9,5-3.9,9.5-10.8,14.3-14.7,3.9-3.2,4.6-4.1,8-7.5,2.3-2.3,6.5-5,8.6-7.4.7-.8.9-1.5.7-2.5h0Z"/>
  <path class="st8" d="M553.7,380.6c0,22.1,0,44.3,0,66.4l-161.4,92.6c-.4-.6-.8-1.8-.4-2.4.2-.3,4.4-3.3,5.2-4.1.9-.9,1.6-2.5,2.5-3.5,5.7-5.8,11.7-10.9,17.2-16.8,1.9-2,4.7-3.6,6-5,.7-.8,1.2-3,2.3-3.2.5,0,1.5.6,1.7.4,0,0,0-1.1.5-1.8,3.4-5.1,11.1-10.6,15.5-15,9.3-9.3,18.3-19.8,28.2-28.2,2.9-2.5,5.3-5.4,8.3-8.2,2.3-2.2,5.1-4.5,7.5-7,.9-1,2-3.2,2.7-3.8.8-.7,1.7-.3,2.1-.6s.7-2.2,1.2-2.8c.9-.9,4.9-2.9,5.7-3.8s.9-2.2,1.6-3.1c2.1-2.6,5.2-3.6,6.7-5.3.9-1,1.4-3.1,2.8-4.2,1.4-1.2,4.1-2.5,5.5-4,6.5-6.7,13.9-15,20.8-21.2,1.2-1.1,4.1-2.5,4.6-3.1.5-.5.5-1.9,1.3-2.9,1.1-1.3,2.9-1.6,4-2.5.6-.5,2.1-3.2,2.4-3.4.5-.3,1.3,0,1.8-.2.7-.4,1.3-4,3.6-3.4h0Z"/>
  <path class="st12" d="M127.7,350.6c-.7,15.7.4,31.9,0,47.7.4,1.1,10.2,5.8,12.1,6.9.7.4,1.1,1.3,1.3,1.4-.3.7-.7,1.5-1.2,2-6.1,6.2-12.6,11.5-18.6,17.6-2.4,2.5-6.3,8.2-8.8,10.2-.9.7-2.3.4-2.8.7-.3.2-.4,1.8-1.1,2.6-1.1,1.3-8.3,8.2-9.7,9.3-.8.6-2.1.6-2.6,1.1s-.7,2.1-1.4,2.9c-2.1,2-7.7,4.2-8.2,7.7l-4.5,4.4c-.4-.2-1.3-.3-2-.7-10.1-5.9-20.1-11.9-30.4-17.4-.2-7.6,0-15.3,0-22.9,2.2.2,2.8-2,4-3.3,7.2-7.5,15.2-15.1,22.8-22.2,8.5-8,17.7-16.7,26.3-25.2,5.6-5.6,10.9-11,16.7-16.3,2.6-2.4,4.5-6.2,8.2-6.5h0Z"/>
  <path class="st0" d="M538.7,147.6c-.5,1.7-3,2-3.7,3-.5.7-.4,2-1.3,2.7-.7.6-2,.6-2.8,1.2-2,1.6-3.8,4.9-5.5,6.5-1.8,1.9-2.8,1.9-5.1,4.4s-4.5,4.6-6.9,6.9c-13.5,12.7-26,26-39.6,38.2-1,.9-3.2,3-4,4-.5.8-.7,2.3-.8,2.4-.4.3-1.7-.2-2.5.3-.4.3-.6,1.6-1.2,2.3-.8.9-2.5,1.3-2.7,1.6-.7,1.1.3,2.8-3.1,2.9,0-6.3,0-12.6,0-18.9-11.1-5.6-21.6-12.2-32.4-18.4-.9-.5-1.7-1.5-2-1.7,1.4-1.6,3.3-1.8,5-3.2s2.1-3,3-4c.8-.8,2.7-1.2,4-2.5,1-.9,2.3-3.5,3.1-4.1.7-.6,1.9-.5,2.4-.9.8-.7.2-2.1.7-2.8.2-.3,4.6-3.2,5.2-3.8,1.2-1.1,5.6-5.2,6.3-6.2.8-1.1.6-2.4.7-2.5.2-.2,1.6.8,2.5.3.8-.5.7-2.2,1.3-2.8,2.2-2.6,6.3-5.8,8.9-8.4,4.7-4.6,8.9-9.1,13.6-13.7,1.8-1.8,3.3-3.9,4.7-5.3,1.6-1.5,4.6-2.3,6-4.2,15.3,8.8,31.1,17,46,26.5h0Z"/>
  <path class="st12" d="M438.7,90.1c-2.8,1.3-4.4,4.6-6.5,6.8-2.7,2.8-6.5,5.5-9.3,8.2-7.8,7.8-15.8,17-24,24.5-6.2,5.7-10,9.3-15.5,15.4-1.7,1.9-5,4.2-7.2,6.3-5.2,4.9-10.1,10.1-15.3,15.2s-10.2,9.2-15.1,14.4c-1.1,1.2-3.1,1.8-3.2,4.1-1-.6-5.8-2.7-6-3.4v-46.7c1.7,0,2-1.8,2.9-2.5,15.2-12.1,30.8-29.6,45.2-43.7,5.1-5,12.9-11.2,17.5-16.5.7-.8,1-1.8,1.5-2.8,11.7,6.7,23.4,13.8,35,20.5h0Z"/>
  <path class="st14" d="M213.7,400.6c.1,1.2-.2,2.4-.9,3.4-2,3.1-5.1,3.4-6.4,4.6-.5.5-.7,1.6-1.3,2.2-5.9,6.6-12.4,11.7-18,18.5-2,2.4-6.2,4.5-8,6.5-.6.7-.4,1.8-.9,2.5-.6.8-2.1.8-3,1.5-4,3.1-7.9,9.9-12,13-1.2.9-2.4,1-3.3,1.7-2.7,2-5.8,7.5-7.9,9-.8.6-2,.3-2.2.5-.1.1,0,1.5-.8,2.5-.9,1.2-3.9,2.4-5.1,3.6-5.8,6.1-11.6,11.8-16.8,18.2-.4.5-1.6.7-1.9,1.6-14.3-8.3-28.7-16.7-43-25l4.5-4.4c.5-3.4,6.2-5.6,8.2-7.7.7-.7.9-2.4,1.4-2.9s1.8-.5,2.6-1.1c1.4-1.1,8.6-8,9.7-9.3.7-.8.8-2.4,1.1-2.6.5-.3,1.8,0,2.8-.7,2.5-1.9,6.4-7.7,8.8-10.2,6-6.2,12.5-11.4,18.6-17.6.6-.6.9-1.3,1.2-2,.8.5,2.2.8,3.3,1.4,8.6,5,17.1,10.1,25.9,14.6,13.8-7.2,27.3-15.4,40.8-23.3,1.1-.6,1.8.9,2.5,1.3h0Z"/>
  <path class="st4" d="M251.7,454.1c0,2.6-.5,14.5.5,15.8,11,5.7,21.4,12.5,32,18.7l-4.5,3.2c-4.2,5.9-10.4,10-15.2,15.3-.5.5-.6,1.5-1.1,1.9-1.1,1.1-3.7,2-4.4,3.1-.5.8-.5,2-1.3,2.7-.9.8-2.4.6-3.5,1.5-1.9,1.5-2.2,5.1-2.5,5.3-.3.2-1.4-.7-1.9-.4-.1,0-.3.8-.6,1.1-4.5,3.8-8.8,8.1-12.9,12.1-2.4,2.3-1.8,2.9-2.8,4.7-.6,1-3.3,1.7-4.2,2.3-1.9,1.3-2.9,4.2-4.6,5.7-14.4-8.3-29.4-16.6-44-25,1.9-1.8,4.1-3.5,6-5.2,3.1-2.8,6.4-5.7,9.5-8.5,1.8-1.5,1.9-3.1,2.7-4.3.4-.6,1.7-.5,2.3-1.2.4-.5.3-1.5.6-1.7.4-.4,2.2,0,2.8-.7.3-.4.2-1.5.7-2.1.7-1,4.1-3.6,5.3-5,2.5-2.7,1.2-1,3.6-2.6,2.6-1.7,5.4-6.6,7.2-8.2.9-.8,2.1-.8,3-1.5.6-.5,6.5-6.9,7-7.5.5-.7.5-1.9,1-2.5.8-.8,2.4-.4,3.3-1.2,2.1-2,3.6-4.9,5.5-7,1-1.1,2.4-1.4,3.3-2.2,2.3-2.1,4.4-5.2,7.2-6.5h0Z"/>
  <path class="st5" d="M403.7,69.6c-.5.9-.8,1.9-1.5,2.8-4.6,5.4-12.3,11.5-17.5,16.5-14.4,14.1-29.9,31.6-45.2,43.7-.9.7-1.2,2.5-2.9,2.5v-1.2c-11.1-6.6-22.3-13.4-33.5-19.8-.2-1.5,1.6-1.4,2.4-2.2,2.2-2.4,4.6-5.1,6.9-7.3,12-11.8,23.9-23.1,35.5-34.5,5.1-5,10.2-10,15.2-15.3,1.7-1.8,4.4-3,4.5-6.2,12,6.9,24,14.1,36,21Z"/>
  <path class="st9" d="M176.7,184.1c.1,0,.4.7.8.9,11.5,6.4,22.7,13.4,34.4,19.5l39.6-22.9.5-48c13.6-7.7,26.9-15.8,40.6-23.3.8-.4.5-1.6,2.3-1.1.4,0,.4.8,1,1.1,2.4,1.3,5,2.5,7.4,3.9,11.2,6.4,22.4,13.3,33.4,19.8v1.2c0,0,0,46.6,0,46.6.2.7,5,2.8,6,3.4,10.5,6.2,20.9,12.7,31.6,18.6l1.6.4,1.6-.4,38.6-22.4c1.9-.5,5.7,2.5,7.5,3.5.5.3,1.2.2,1.4.3.4.2,1.2,1.2,2,1.7,10.8,6.1,21.3,12.7,32.4,18.4.2,6.3,0,12.6,0,18.9,0,10.3,0,20.6-.1,30.9-13.5,8.2-27.6,15.3-40.8,23.9v46.3c6.1,3.8,12.6,7.2,18.9,10.8,7.3,4.2,14.3,8.9,21.9,12.6.1,8.8.1,17.6,0,26.4,0,7.8,0,15.6,0,23.4l-35.4,20.6c-2.6.4-5.6,4-8.1,3.4-3.4-2.3-7.2-3.8-10.7-5.8-8.7-4.9-17.5-11.1-26.3-15.7-1.3-.7-2.8-1.9-4.2-1l-38.1,21.7v46.7s-.6,1.5-.6,1.5c-13.6,7.5-26.8,15.6-40.4,23.1-.8.5-.5,1.6-2.3,1.1-.4-.1-.4-.8-1-1.1-2.8-1.5-5.7-2.8-8.4-4.4-10.7-6.2-21.1-13-32-18.7-.9-1.3-.4-13.2-.5-15.8,0-10.7.2-21.4-.2-32-12.6-7.1-24.9-14.8-37.8-21.5-.7-.4-1.4-1.9-2.5-1.3-13.5,7.9-27,16.1-40.8,23.3-8.8-4.5-17.3-9.7-25.9-14.6-1.1-.6-2.5-1-3.3-1.4-.2-.1-.6-1-1.3-1.4-1.9-1.1-11.7-5.8-12.1-6.9.4-15.8-.8-32,0-47.7,0-.6-.2-1.5,0-1.9l41.8-24.4v-44.8c-.3-1.1-11.5-6.8-13.4-7.8-9.5-5.4-19-11-28.4-16.6-.2-10.6-.1-21.3-.1-31.9,0-6,0-12,0-17.9l41.9-23.9c1.2-.3,5.6,2,7,2.8h0ZM254.3,181.5l39.7,22.6,1.6-.4,38.4-22.6v-45.5l-39.6-22.9c-13.5,7.4-27,15.1-40.1,23.2v45.6s0,0,0,0ZM206.7,205.1c-11.6-6.8-23.7-13-35.1-20.1l-1.6-.4-38.8,22.3-.5,1.5v44.9c5.6,3.6,11.8,6.5,17.5,9.8,1,.6,2.4,1.9,3.7,2.6,6.1,3.5,12.3,7,18.6,10.4l39.7-22.6v-45.7c-.2-1.3-2.3-2.1-3.4-2.8h0ZM282.7,201.6c-9.8-5.8-19.6-11.8-29.8-17l-39.6,22.6v45.6c3.7,2.6,7.9,4.5,11.9,6.8,9.2,5.4,18.3,11,27.7,16l39.2-22.1v-46.6c-3-1.9-6.3-3.5-9.4-5.3h0ZM301.2,256.1c11.1,6.8,22.4,13.2,33.8,19.5l39.2-22v-46.6c-4.7-2.9-9.6-5.6-14.4-8.3-8.2-4.7-16.5-9.6-24.7-14l-38.8,22.3-.5,1.5v44c.4,2,4,2.8,5.5,3.8h0ZM443.2,199.6c-3.4-2-24.9-15.2-26.7-15l-38.7,22.1v46.6c2.1,1.2,4.2,2.6,6.4,3.8,10.9,6.5,22.2,12.5,33.2,18.9l39.2-22.5v-46.1c-4.2-3-8.9-5.2-13.4-7.9h0ZM244.2,275.1c-.2-.1-.6-1-1.3-1.4-10.2-6-20.6-11.8-30.9-17.5l-39.6,22.6v45.6c3.8,2.6,7.8,4.9,11.7,7.2.6.4,1.3.4,1.6.6,8.8,5.2,17.6,10.7,26.7,15.4l38.4-22.1.5-1.5v-44.5c-.5-2.3-5.4-3.3-7-4.3h0ZM319.7,271.1c-8.5-4.9-16.9-10.4-25.7-14.9l-38.8,22.1-.5,1.5v44.9c.1.4,5.6,3.3,6.5,3.9,10.3,6.1,20.9,11.8,31.1,18.1,1.3.7,2.7.4,3.9-.3l36.5-21,.5-1.5v-45c-.6-1.4-11.5-6.7-13.5-7.8h0ZM415.6,278.7l-39.7-22.6-38.4,22.1-.8,1.7.3,45.3,39,22,2.3-.8,37.2-21.8.2-45.9h0ZM193.7,341.1c-7.7-4.4-15.5-8.9-23.2-13.4l-39.4,22.6-.5,46.5c.1.5,5.6,2.8,6.5,3.3.1,0,.4.7.8.9,10.8,6.2,21.7,12.3,32.4,18.6l39.7-22.6v-46.6c-5.4-3.2-10.9-6.2-16.4-9.3h0ZM226.2,403.6c1.1.6,2.5,2.1,3.9,2.9,7.4,4.3,14.9,8.4,22.4,12.6l39.6-22.6v-45.6c.1-.6-.2-.9-.7-1.2-1.6-1.3-5.7-2.9-7.7-4-10.2-5.9-20.1-12.5-30.8-17.5l-39.2,22.3-.5,1.5v44.5c.3.6,7.5,4.7,8.7,5.4,1.3.8,3.4,1.4,4.3,1.9h0ZM295.8,350.2v45.1c.1,1.2,5.7,4.2,7.2,5.1,10.7,6.5,21.9,12.4,32.8,18.5l38.1-21.9.3-45.8-.8-1.7-36.2-20.8c-1.2-.8-2.6-1.1-3.9-.3l-37.5,21.7h0ZM391.2,404.6c8.5,5.1,17,10.3,25.8,15l39.7-22.6v-46.1c-1.7-1-3.3-2.4-5.1-3.5-.8-.5-1.9-.6-2.4-.9-9.8-6-20-11.8-30-17.8l-2.3-.8-38.8,21.8-.5,1.5v45.5c.4,1,11.7,6.7,13.5,7.8h0ZM323.5,416.3c-9.8-5.7-19.6-11.4-29.6-16.6l-39.7,22.5.2,45.4,39.6,22.9,39.7-22.6.5-1.5v-43c-.5-2.3-8.1-5.1-10.2-6.3-.3-.2-.4-.7-.5-.8h0Z"/>
  <path class="st5" d="M254.3,181.5v-45.6c13.1-8.2,26.5-15.8,40.1-23.2l39.6,22.9v45.5l-38.4,22.6-1.6.4-39.7-22.6h0Z"/>
  <path class="st4" d="M323.5,416.3c.2,0,.2.6.5.8,2,1.2,9.7,4,10.1,6.3v43s-.5,1.5-.5,1.5l-39.7,22.6-39.6-22.9-.2-45.4,39.7-22.5c10,5.3,19.8,11,29.6,16.6h0Z"/>
  <polygon class="st6" points="415.6 278.7 415.4 324.6 378.2 346.4 375.9 347.1 336.9 325.1 336.6 279.8 337.5 278.1 375.9 256.1 415.6 278.7"/>
  <path class="st4" d="M295.8,350.2l37.5-21.7c1.3-.7,2.7-.4,3.9.3l36.2,20.8.8,1.7-.3,45.8-38.1,21.9c-11-6.1-22.1-12-32.8-18.5-1.5-.9-7.1-4-7.4-5.1v-45.1c.1,0,.1,0,.1,0Z"/>
  <path class="st2" d="M206.7,205.1c-.8,2.4-3.1,3.9-4.8,5.5-3.9,3.7-7.8,7.9-11.5,11.5-.9.9-3.7,2.4-4.3,3.2s-.3,1.8-1,2.5c-.5.5-1.9.8-2.7,1.3-2.9,2.1-5.3,5.2-7.8,7.7-6.4,6.1-12.6,12.8-19.3,18.7l-7.2,7.5c-5.8-3.4-11.9-6.2-17.5-9.8v-44.9l.5-1.5,38.8-22.3,1.6.4c11.5,7.1,23.5,13.3,35.1,20.1h0Z"/>
  <path class="st14" d="M193.7,341.1c5.5,3.1,11.1,6.2,16.5,9.3v46.6c-.1,0-39.8,22.6-39.8,22.6-10.7-6.3-21.7-12.3-32.4-18.6-.4-.3-.7-.8-.8-.9-.7-3.8,1.8-3.7,3.5-5.3,6.2-5.7,11.6-12.7,18-18.5,1.5-1.4,5.7-3.7,6.9-5.4.4-.6.4-2,.8-2.3.4-.2,1.4,0,1.9-.3s3.4-4.9,4.3-5.7c3.4-3.4,9.4-7.3,12.4-11.1,1.5-1.9.1-1.2,2.8-3.2,2.5-1.9,5.4-3.9,6-7.2h0Z"/>
  <path class="st14" d="M359.7,198.6c4.8,2.8,9.8,5.4,14.5,8.3v46.6c-.1,0-39.3,22-39.3,22-11.4-6.3-22.7-12.7-33.8-19.5l58.5-57.5Z"/>
  <path class="st0" d="M261.2,328.6c0-2.3,1.7-2,2.8-3,8.6-8.3,15.9-17.5,24.9-25.4.8-.7,2.6-1.1,3.3-1.9,2-2.2,3.3-4.4,5.8-6.8,3.9-3.8,7.9-7.5,11.8-11.2,3.3-3.1,6.5-6.4,10-9.3,2,1.2,12.9,6.4,13.4,7.8v45c.1,0-.4,1.5-.4,1.5l-36.5,21c-1.2.8-2.6,1.1-3.9.3-10.2-6.3-20.8-12-31.1-18.1h0Z"/>
  <path class="st6" d="M443.2,199.6c4.5,2.6,9.2,4.9,13.5,7.9v46.1c0,0-39.3,22.5-39.3,22.5-11-6.4-22.2-12.4-33.2-18.9,0-1,.6-1.4,1.2-2,5.8-5.3,13.2-10.9,18.3-16.7.5-.6,2-3.8,2.6-4.1.8-.4,2.2.2,2.8-.2.2-.1,1.3-2.8,2-3.6,1.9-2,3.7-4,6.1-6.1,4.6-4,10-9.1,14.2-13.8.4-.5,1.4-.7,1.8-1.2.6-.8.3-1.8.6-2.2.3-.5,4.1-2,4.4-2.3.7-.7.3-1.8.6-2.2.2-.2,1.1-.2,1.6-.6.8-.6,2.8-1.6,2.8-2.5h0Z"/>
  <path class="st12" d="M244.2,275.1c-2.5.9-3.9,4.5-5.6,5.9-4.6,3.7-9.2,8.3-13.5,13-.4.4-1.3.4-1.7.8-.6.6-.9,2.7-1.8,3.4s-2.3.2-3.1,1c-.4.4-.5,1.4-1,2-2.6,3-8.7,9.6-11.2,11.7-.6.5-3,1.3-3.3,1.9-2.6,4.6-8.4,7.8-12.4,11.9-1.8,1.8-2.4,4.6-4.8,5.5-.3-.2-1.1-.2-1.6-.6-4-2.3-7.9-4.7-11.8-7.2v-45.6s39.7-22.6,39.7-22.6c10.4,5.8,20.7,11.5,30.9,17.5.7.4,1.2,1.3,1.3,1.4h0Z"/>
  <path class="st4" d="M449.2,346.6l-15.3,15c-3.7,5.3-9.9,8.4-14.2,13.3-1.3,1.4-1.9,1.8-3,3-.8.9-1,2.5-1.6,3.1-.5.5-2,.7-2.8,1.4-3,2.5-7.2,7.6-10,10.5-2.5,2.6-5.1,5.4-7.7,7.6-1.2,1-3.5,1.4-3.3,4.2-1.8-1.1-13.1-6.9-13.4-7.8v-45.5c-.1,0,.4-1.5.4-1.5l38.8-21.8,2.3.8c10,5.9,20.1,11.8,30,17.8Z"/>
  <path class="st0" d="M283.7,345.6c-1.8,1-1.7,2.7-2.5,3.8-1.7,2.4-5.9,5.5-8,7.5-.9.9-2.4,3.5-3.2,4.1s-2.2.5-2.9,1.4-.5,2.5-1.1,3.2c-.8.9-4.4,2.3-5.6,3.6s-1.1,2.5-1.9,3.4c-1.6,2-7.6,6.1-9.9,8.4-2.1,2.1-5.6,8-7.2,9.3-.9.7-1.9.4-3,1-2,1.1-4.7,5.4-6,7-.8,1-3.1,2.1-4,3-.9.9-.5,2.3-2.2,2.5-.9-.5-3-1.1-4.3-1.9-1.2-.7-8.4-4.9-8.6-5.4v-44.5c-.1,0,.4-1.5.4-1.5l39.3-22.3c10.6,5,20.6,11.6,30.8,17.5h0Z"/>
  <path class="st5" d="M282.7,201.6c-.7,1.5-2.4,3.7-3.5,4.8-7,6.9-15.1,13.2-22,20.5-.7.7-1,2.3-1.7,2.8s-1.8.3-2.2.6c-.2.2-2.5,4.1-2.7,4.3-.5.4-2.1,0-2.8.7-.4.4-.5,1.8-1.1,2.7-1.4,1.9-4.5,3.6-5.9,4.9-4,3.8-7.2,8.6-12,11.5l-3.6,5.4c-4-2.3-8.2-4.3-12-6.8v-45.6c.1,0,39.8-22.6,39.8-22.6,10.1,5.2,19.9,11.2,29.8,17h0Z"/>
  <path class="st12" d="M282.7,201.6c3.1,1.8,6.4,3.5,9.5,5.3v46.6c-.1,0-39.3,22.1-39.3,22.1-9.4-5-18.6-10.6-27.8-16l3.6-5.4c4.8-2.8,8-7.7,12-11.5,1.3-1.3,4.4-3,5.9-4.9.6-.8.7-2.2,1.1-2.7.7-.7,2.3-.3,2.8-.7.2-.1,2.5-4.1,2.7-4.3.4-.3,1.4,0,2.2-.6s1-2.1,1.7-2.8c6.9-7.3,15.1-13.6,22-20.5,1.1-1.1,2.8-3.3,3.5-4.8h0Z"/>
  <path class="st6" d="M283.7,345.6c2,1.2,6.1,2.8,7.7,4,.4.3.8.5.8,1.2v45.6c-.1,0-39.8,22.6-39.8,22.6-7.5-4.2-15-8.2-22.4-12.6-1.4-.8-2.8-2.3-3.9-2.9,1.8-.2,1.4-1.7,2.2-2.5.9-.9,3.2-2.1,4-3,1.3-1.6,4-5.9,6-7,1.1-.6,2.1-.3,3-1,1.6-1.3,5.1-7.1,7.2-9.3,2.2-2.3,8.3-6.4,9.9-8.4.7-.9.5-2.1,1.9-3.4s4.8-2.7,5.6-3.6c.6-.7.4-2.3,1.1-3.2s2.1-.7,2.9-1.4,2.2-3.2,3.2-4.1c2.1-2,6.3-5.1,8-7.5.8-1.1.7-2.8,2.5-3.8h0Z"/>
  <path class="st7" d="M449.2,346.6c.5.3,1.6.4,2.4.9,1.7,1.1,3.4,2.4,5.2,3.5v46.1c0,0-39.8,22.6-39.8,22.6-8.8-4.7-17.2-9.9-25.8-15-.2-2.8,2.2-3.2,3.3-4.2,2.6-2.2,5.2-5,7.7-7.6,2.8-2.9,7-8,10-10.5.8-.7,2.3-.9,2.8-1.4s.8-2.2,1.6-3.1c1.1-1.1,1.7-1.5,3-3,4.3-4.8,10.5-8,14.2-13.3l15.3-15Z"/>
  <path class="st14" d="M185.7,332.1c2.4-.9,3-3.7,4.8-5.5,4-4.1,9.7-7.2,12.4-11.9.4-.6,2.8-1.4,3.3-1.9,2.5-2.1,8.6-8.8,11.2-11.7.5-.6.6-1.6,1-2,.8-.7,2.1-.3,3.1-1s1.2-2.8,1.8-3.4c.4-.4,1.3-.3,1.7-.8,4.3-4.7,8.9-9.3,13.5-13,1.7-1.4,3.1-4.9,5.6-5.9,1.6,1,6.5,1.9,7,4.3v44.5s-.5,1.5-.5,1.5l-38.4,22.1c-9.1-4.7-17.8-10.2-26.7-15.4h0Z"/>
  <path class="st0" d="M443.2,199.6c0,.9-2,2-2.8,2.5-.5.4-1.5.4-1.6.6-.3.4,0,1.5-.6,2.2-.3.3-4.1,1.9-4.4,2.3-.3.4,0,1.4-.6,2.2-.4.5-1.4.7-1.8,1.2-4.2,4.7-9.6,9.8-14.2,13.8-2.4,2.1-4.1,4.1-6.1,6.1-.7.8-1.9,3.5-2,3.6-.6.4-2.1-.2-2.8.2-.6.3-2.1,3.6-2.6,4.1-5.1,5.8-12.5,11.4-18.3,16.7-.6.6-1.2,1-1.2,2-2.2-1.3-4.3-2.7-6.5-3.8v-46.6c.1,0,38.8-22.1,38.8-22.1,1.8-.2,23.3,13,26.7,15h0Z"/>
  <path class="st14" d="M261.2,328.6c-1-.6-6.4-3.4-6.5-3.9v-44.9s.5-1.5.5-1.5l38.8-22.1c8.8,4.5,17.1,10,25.7,14.9-3.5,2.9-6.7,6.1-10,9.3-3.9,3.7-7.8,7.4-11.8,11.2-2.5,2.4-3.8,4.5-5.8,6.8-.8.9-2.5,1.2-3.3,1.9-9,7.8-16.3,17.1-24.9,25.4-1.1,1-2.8.6-2.8,3h0Z"/>
  <path class="st12" d="M359.7,198.6l-58.5,57.5c-1.5-.9-5.1-1.8-5.5-3.8v-44s.5-1.5.5-1.5l38.8-22.3c8.3,4.4,16.5,9.3,24.7,14h0Z"/>
  <path class="st12" d="M193.7,341.1c-.6,3.4-3.6,5.3-6,7.2-2.6,2.1-1.2,1.4-2.8,3.2-3,3.8-9,7.7-12.4,11.1-.9.8-3.8,5.4-4.3,5.7s-1.5,0-1.9.3c-.4.3-.3,1.7-.8,2.3-1.2,1.7-5.4,4-6.9,5.4-6.4,5.8-11.8,12.7-18,18.5-1.7,1.6-4.1,1.5-3.5,5.3-.9-.5-6.4-2.8-6.5-3.3l.5-46.5,39.4-22.6c7.7,4.5,15.4,9,23.2,13.4h0Z"/>
  <path class="st5" d="M206.7,205.1c1.1.7,3.2,1.4,3.5,2.8v45.7c0,0-39.8,22.6-39.8,22.6-6.2-3.4-12.4-6.9-18.6-10.4-1.3-.7-2.6-2-3.7-2.6l7.2-7.5c6.7-5.9,12.9-12.6,19.3-18.7,2.6-2.4,5-5.6,7.8-7.7.7-.5,2.2-.8,2.7-1.3.6-.7.4-1.8,1-2.5s3.4-2.3,4.3-3.2c3.7-3.6,7.6-7.8,11.5-11.5,1.6-1.6,3.9-3.1,4.8-5.5h0Z"/>
</svg>