<?xml version="1.0" encoding="UTF-8"?>
<svg id="Layer_1" data-name="Layer 1" xmlns="http://www.w3.org/2000/svg" viewBox="0 0 980.59 205.92">
  <defs>
    <style>
      .cls-1 {
        fill: #575eef;
      }

      .cls-2 {
        fill: #4b83f5;
      }

      .cls-3 {
        fill: #4195f8;
      }

      .cls-4 {
        fill: #318cdf;
      }

      .cls-5 {
        fill: #5953ed;
      }

      .cls-6 {
        fill: #28affc;
      }

      .cls-7 {
        fill: #1c9bdc;
      }

      .cls-8 {
        fill: #5076f3;
      }

      .cls-9 {
        fill: #447de3;
      }

      .cls-10 {
        fill: #36a4fa;
      }

      .cls-11 {
        fill: #f0f6fc;
      }

      .cls-12 {
        fill: #468ff7;
      }

      .cls-13 {
        fill: #3a86e1;
      }

      .cls-14 {
        fill: #5565f0;
      }

      .cls-15 {
        fill: #2a91de;
      }
    </style>
  </defs>
  <path class="cls-7" d="M.03,120.15c-.06-22.52.07-45.05-.03-67.57l.55-1.57L89.37,0c7.02,3.48,13.5,7.92,20.28,11.85,3.11,1.8,6.43,3.73,9.56,5.53l-19.6,18.01c-3.15-1.87-6.66-3.35-9.8-5.29l-16.05,9.11-.2,17.82-15.67,9c-2.27.48-12.78-7.54-15.76-8.36l-16.05,9.08-.12,19.12c2.05,1.45,4.21,2.81,6.37,4.08-.02,1.04-.64,1.49-1.33,2.11-6.77,6.12-13.68,12.48-20.4,18.8-3.31,3.12-6.45,7.58-10.59,9.28Z"/>
  <polygon class="cls-6" points="979.53 58.7 979.53 75.12 932.38 75.12 932.38 94.19 975.29 94.19 975.29 109.55 932.38 109.55 932.38 131.27 980.59 131.27 980.59 147.69 912.78 147.69 912.78 58.7 979.53 58.7"/>
  <polygon class="cls-2" points="641.55 58.7 641.55 75.12 594.4 75.12 594.4 94.19 637.31 94.19 637.31 109.55 594.4 109.55 594.4 131.27 642.61 131.27 642.61 147.69 574.8 147.69 574.8 58.7 641.55 58.7"/>
  <polygon class="cls-8" points="494.02 58.7 514.15 121.21 534.81 58.7 554.67 58.7 525.51 147.67 503.08 147.73 474.68 58.7 494.02 58.7"/>
  <polygon class="cls-10" points="831.99 58.7 852.12 121.21 872.78 58.7 892.65 58.7 863.26 147.17 841.06 147.73 812.66 58.7 831.99 58.7"/>
  <path class="cls-9" d="M179.08,96.31c.03,19.56.07,39.14-.11,58.69l-88.22,50.84c-2.69.72-8.61-3.7-11.26-5.18l54.56-52.97c.66.33,1.79.46,2.51.97,5.7-2.16,10.87-6.28,16.45-9.02.87-1.5-.43-16.09.11-19.49.08-.49.13-.95.5-1.33,1.46-.78,2.69-2.88,3.71-3.72,6.56-5.37,11.1-10.8,17.22-16.17,1.17-1.03,2.87-2.62,4.53-2.62Z"/>
  <path class="cls-13" d="M134.06,147.69l-54.56,52.97c-21.75-12.16-43.16-25.04-64.63-37.61,1.4-.45,3.11-1.97,4.18-2.97,3.73-3.46,7.07-7.48,10.68-11.04,1.1-1.09,3.46-1.81,4.2-4.01,1.26.71,7.96,4.27,8.62,4.16l15-8.4c5.53,2.33,10.49,6.18,15.85,9l.37,17.91,16.05,9.08,16.05-9.08c.7-2.96-.7-18.26.45-19.54l14.76-8.42c4.13,2.18,8.01,4.74,12.12,6.97.47.26.74.91.86.97Z"/>
  <polygon class="cls-5" points="309.93 58.7 309.93 75.12 282.91 75.12 282.91 147.69 263.31 147.69 263.31 75.12 236.83 75.12 236.83 58.7 309.93 58.7"/>
  <path class="cls-1" d="M369.26,58.7c-.05,1.75,1.23,3.28,1.11,5.04-.08,1.17-.93,1.77-1.08,2.67-.39,2.35.34,5.18-.56,7.65-5.64-.15-11.31.11-16.95,0v24.9c5.81-.12,11.67.16,17.48,0,1.34,2.54-.54,4.26-.59,6.12-.02.99,1.02.47,1.16,1.53.28,2.08-.5,4.09-.57,6.13-5.81-.2-11.67.15-17.48,0v34.96h-19.6V58.7c12.35.12,24.73-.16,37.08,0Z"/>
  <path class="cls-12" d="M706.18,109.55c-6.17-.03-12.37.02-18.54,0v38.14h-19.6V58.7h19.6v34.43c5.82.02,11.66-.03,17.48,0,1.28,2.14-.7,4.14-.55,5.54.11,1.11,1.37,1.53,1.5,2.2s-.56,1.89-.41,3.07c.22,1.76,1.78,3.11.53,5.61Z"/>
  <path class="cls-3" d="M705.12,93.13c6.17.03,12.37-.02,18.54,0v-34.43h19.6v89h-19.6v-38.14c-5.82-.02-11.66.03-17.48,0,1.25-2.5-.32-3.85-.53-5.61-.14-1.19.54-2.41.41-3.07s-1.38-1.09-1.5-2.2c-.14-1.41,1.84-3.4.55-5.54Z"/>
  <path class="cls-14" d="M369.26,58.7c9.51.12,17.4-1.23,25.91,4.02,11.63,7.17,14.52,23.41,7.37,34.83-2.71,4.32-6.06,5.46-9.97,8.3,17.95,6.02,9.53,28.41,15.89,41.86h-18.81c-2.04,0-3.11-19.84-3.58-22.38-2.04-10.89-6.66-12.24-16.82-12.59.08-2.04.85-4.05.57-6.13-.14-1.06-1.18-.54-1.16-1.53.04-1.86,1.93-3.57.59-6.12,10.34-.29,18.35-.91,17.5-14.06-.73-11.18-9.47-10.61-18.03-10.84.9-2.48.17-5.3.56-7.65.15-.9,1-1.5,1.08-2.67.12-1.76-1.16-3.29-1.11-5.04Z"/>
  <path class="cls-13" d="M171.67,47.57c1.13.64,7.23,3.29,7.43,4.08,0,14.88-.03,29.78,0,44.65-1.67,0-3.36,1.59-4.53,2.62-6.11,5.37-10.65,10.8-17.22,16.17-1.02.84-2.25,2.94-3.71,3.72-.37.38-.42.84-.5,1.33l-15.04-8.53c-.81-.4-.79-.99-.88-1.76-.19-1.64-.25-14.88.14-15.55l15.26-8.96c-.35-6.35.69-13.06-.54-19.23-.3-1.5.96-1,1.61-1.82,3.79-4.78,10.51-11.2,15.15-15.17.53-.45,2.2-.77,2.84-1.56Z"/>
  <rect class="cls-8" x="434.95" y="58.7" width="19.6" height="89"/>
  <rect class="cls-3" x="772.93" y="58.7" width="19.6" height="89"/>
  <path class="cls-15" d="M32.34,89.95c3.21,1.9,6.74,3.51,9.98,5.38v16.25s-16.34,9.46-16.34,9.46v18.85c2.72,1.54,5.25,3.61,7.96,5.14-.74,2.19-3.1,2.92-4.2,4.01-3.61,3.55-6.96,7.58-10.68,11.04-1.08,1-2.78,2.52-4.18,2.97-.45-.26-1.41-.34-2.13-.76-4.25-2.5-8.54-4.94-12.71-7.56,0-11.53.04-23.07,0-34.59,4.13-1.69,7.28-6.16,10.59-9.28,6.71-6.32,13.63-12.68,20.4-18.8.69-.62,1.31-1.07,1.33-2.11Z"/>
  <path class="cls-4" d="M140.94,29.56c10.29,5.93,20.38,12.18,30.73,18.01-.64.79-2.31,1.11-2.84,1.56-4.64,3.96-11.37,10.39-15.15,15.17-.64.81-1.91.31-1.61,1.82l-15.22-8.93c-1.82-.3-13.22,7.72-15.87,8.84-3.45-1.95-7.06-3.77-10.43-5.83-.47-.29-.7-.87-.86-.97,4.14-1.93,6.5-5.83,9.71-8.83,6.46-6.02,14-11.7,20.16-18.24.65-.69,1.21-1.64,1.38-2.6Z"/>
  <path class="cls-15" d="M119.22,17.38c7.18,4.13,14.49,8.01,21.72,12.18-.17.95-.73,1.9-1.38,2.6-6.16,6.55-13.7,12.22-20.16,18.24-3.21,2.99-5.57,6.9-9.71,8.83-.67-.42-3.48-1.08-3.72-1.96l.02-17.79c-2.13-1.23-4.28-2.84-6.37-4.08l19.6-18.01Z"/>
  <path class="cls-11" d="M99.62,35.39c2.09,1.24,4.23,2.85,6.37,4.08l-.02,17.79c.24.88,3.05,1.54,3.72,1.96.16.1.39.68.86.97,3.38,2.07,6.99,3.88,10.43,5.83,2.65-1.13,14.05-9.14,15.87-8.84l15.22,8.93c1.23,6.17.19,12.88.54,19.23l-15.26,8.96c-.39.67-.34,13.91-.14,15.55.09.77.07,1.36.88,1.76l15.04,8.53c-.54,3.41.76,17.99-.11,19.49-5.58,2.74-10.74,6.86-16.45,9.02-.72-.51-1.85-.63-2.51-.97-.13-.06-.39-.72-.86-.97-4.11-2.23-7.98-4.79-12.12-6.97l-14.76,8.42c-1.15,1.29.25,16.58-.45,19.54l-16.05,9.08-16.05-9.08-.37-17.91c-5.36-2.83-10.32-6.67-15.85-9l-15,8.4c-.67.11-7.37-3.44-8.62-4.16-2.7-1.53-5.24-3.6-7.96-5.14v-18.85s16.34-9.46,16.34-9.46v-16.25c-3.24-1.87-6.77-3.48-9.98-5.38-2.16-1.28-4.32-2.63-6.37-4.08l.12-19.12,16.05-9.08c2.98.81,13.5,8.84,15.76,8.36l15.67-9,.2-17.82,16.05-9.11c3.14,1.94,6.65,3.42,9.8,5.29ZM89.42,31.77c-2.82.41-10.47,6.82-13.84,7.91-.81.4-.79.99-.89,1.76-.2,1.73-.14,15.51.29,16.2l14.4,8.37,14.68-8.44c.81-.4.79-.99.88-1.76.2-1.68.12-15-.29-15.67-2.78-1.14-13.09-8.69-15.24-8.38ZM88.39,84.55l-.14-17.38-14.44-8.38c-5.31,1.81-10.2,5.69-15.24,8.38l-.17,17.41,15.1,8.46,14.89-8.49ZM120.17,84.55l-.14-17.38c-4.28-2.1-8.73-5.77-12.97-7.69-.68-.31-1.29-.96-2.1-.52l-14.61,8.75-.15,16.85,14.23,8.32h1.51l14.23-8.32ZM136.04,58.79c-.83.12-14,7.67-14.44,8.38v16.96s15.28,8.9,15.28,8.9l14.4-8.37c.42-.69.5-14.47.29-16.2-.07-.58,0-1.16-.55-1.57-2.9-.97-12.75-8.44-14.98-8.11ZM31.29,87.3c1.85,1.16,9.32,6.32,10.86,6.31l14.57-8.16c.55-.4.48-.98.55-1.57.31-2.54.4-13.11-.03-15.4-.36-1.93-2.64-1.69-3.71-2.38-1.98-1.28-9.52-6.84-11.39-6.84l-14.56,8.17c-.55.4-.5.97-.57,1.55-.3,2.5-.4,13.15.03,15.4.36,1.89,3.07,2.18,4.24,2.91ZM104.28,94.3l-14.99-8.58-14.31,8.47-.17,17.93,14.49,8.01,14.75-8.4c.99-1.1.05-14.79.23-17.43ZM136.06,111.56l-.15-16.85-14.61-8.76h-.99s-14.23,8.34-14.23,8.34v17.27s14.23,8.32,14.23,8.32c.57.42.94.22,1.51,0,4.43-1.72,9.61-6.43,14.23-8.33ZM73.05,112.65c-.32-5.21.72-11.57.12-16.64-.13-1.11-.15-1.04-.88-1.76-.88-.88-13.36-7.97-14.17-7.89l-14.39,8.36c-.42.69-.5,14.47-.29,16.2.07.58,0,1.16.55,1.57l14.58,8.17,14.48-7.99ZM120.17,121.31l-14.59-8.51c-1.42-.34-13.02,7.64-15.38,8.51l.14,17.38c2.81,1.15,13.09,8.69,15.24,8.38.83-.12,14-7.67,14.44-8.38l.14-17.38ZM121.98,121.31l.14,17.38,14.44,8.38c5.31-1.81,10.2-5.69,15.24-8.38v-17.5c-2.55-1.07-13.39-8.77-15.24-8.38l-14.59,8.49ZM41.74,113.35c-2.94.43-11.01,7.15-14.44,8.38-.42.69-.5,14.47-.29,16.2.07.58,0,1.16.55,1.57l14.57,8.16,14.84-8.43c.42-.69.5-14.47.29-16.2-.07-.58,0-1.16-.55-1.57-2.9-.97-12.75-8.44-14.98-8.11ZM88.92,139.64l-.14-17.38-14.44-8.38c-5.31,1.93-10.16,5.68-15.24,8.38v17.5c2.55,1.07,13.39,8.77,15.24,8.38l14.59-8.49ZM74.84,149.39l.14,17.38,14.44,8.38c5.31-1.81,10.2-5.69,15.24-8.38v-17.5c-2.55-1.07-13.39-8.77-15.24-8.38l-14.59,8.49Z"/>
  <path class="cls-4" d="M41.74,113.35c2.23-.33,12.08,7.14,14.98,8.11.55.4.48.98.55,1.57.21,1.72.14,15.51-.29,16.2l-14.84,8.43-14.57-8.16c-.55-.4-.48-.98-.55-1.57-.21-1.72-.14-15.51.29-16.2,3.43-1.23,11.5-7.95,14.44-8.38Z"/>
  <path class="cls-9" d="M121.98,121.31l14.59-8.49c1.85-.4,12.69,7.31,15.24,8.38v17.5c-5.04,2.69-9.93,6.57-15.24,8.38l-14.44-8.38-.14-17.38Z"/>
  <path class="cls-13" d="M74.84,149.39l14.59-8.49c1.85-.4,12.69,7.31,15.24,8.38v17.5c-5.04,2.69-9.93,6.57-15.24,8.38l-14.44-8.38-.14-17.38Z"/>
  <path class="cls-4" d="M88.92,139.64l-14.59,8.49c-1.85.4-12.69-7.31-15.24-8.38v-17.5c5.09-2.7,9.93-6.44,15.24-8.38l14.44,8.38.14,17.38Z"/>
  <path class="cls-13" d="M120.17,121.31l-.14,17.38c-.44.71-13.61,8.26-14.44,8.38-2.15.31-12.44-7.22-15.24-8.38l-.14-17.38c2.36-.87,13.97-8.85,15.38-8.51l14.59,8.51Z"/>
  <path class="cls-15" d="M88.39,84.55l-14.89,8.49-15.1-8.46.17-17.41c5.04-2.69,9.93-6.57,15.24-8.38l14.44,8.38.14,17.38Z"/>
  <path class="cls-13" d="M136.04,58.79c2.23-.33,12.08,7.14,14.98,8.11.55.4.48.98.55,1.57.21,1.72.14,15.51-.29,16.2l-14.4,8.37-15.27-8.9v-16.96c.43-.71,13.61-8.26,14.43-8.38Z"/>
  <path class="cls-15" d="M89.42,31.77c2.15-.32,12.46,7.24,15.24,8.38.41.67.49,13.99.29,15.67-.09.77-.07,1.36-.88,1.76l-14.68,8.44-14.4-8.37c-.42-.69-.49-14.47-.29-16.2.09-.77.07-1.36.89-1.76,3.37-1.09,11.02-7.5,13.84-7.91Z"/>
  <path class="cls-4" d="M120.17,84.55l-14.23,8.32h-1.51l-14.23-8.32.15-16.85,14.61-8.75c.81-.44,1.42.21,2.1.52,4.25,1.93,8.69,5.59,12.97,7.69l.14,17.38Z"/>
  <path class="cls-13" d="M136.06,111.56c-4.62,1.89-9.8,6.61-14.23,8.33-.57.22-.94.41-1.51,0l-14.23-8.32v-17.27s14.23-8.34,14.23-8.34h.99s14.61,8.76,14.61,8.76l.15,16.85Z"/>
  <path class="cls-15" d="M73.05,112.65l-14.48,7.99-14.58-8.17c-.55-.4-.48-.98-.55-1.57-.21-1.72-.14-15.51.29-16.2l14.39-8.36c.81-.08,13.28,7.01,14.17,7.89.73.73.75.66.88,1.76.6,5.07-.44,11.43-.12,16.64Z"/>
  <path class="cls-4" d="M104.28,94.3c-.18,2.63.76,16.32-.23,17.43l-14.75,8.4-14.49-8.01.17-17.93,14.31-8.47,14.99,8.58Z"/>
  <path class="cls-7" d="M53.53,66.11l-22.25,21.19c-1.17-.73-3.88-1.02-4.24-2.91-.43-2.25-.33-12.9-.03-15.4.07-.59.02-1.15.57-1.55l14.56-8.17c1.87,0,9.41,5.56,11.39,6.84Z"/>
  <path class="cls-15" d="M31.29,87.3l22.25-21.19c1.07.69,3.35.45,3.71,2.38.43,2.29.33,12.86.03,15.4-.07.58,0,1.16-.55,1.57l-14.57,8.16c-1.54,0-9.01-5.16-10.86-6.31Z"/>
</svg>